<svg width="59" height="64" viewBox="0 0 59 64" fill="none" xmlns="http://www.w3.org/2000/svg">
<path d="M10.4264 57.0218C10.2042 57.0218 9.98198 57.0327 9.77085 57.0548V60.1221C9.98198 60.1329 10.2042 60.1441 10.4152 60.1441C11.4375 60.1441 12.0266 59.6107 12.0266 58.5771C12.0266 57.5214 11.4709 57.0218 10.4264 57.0218ZM10.4042 60.9891C10.1932 60.9891 9.98198 60.9777 9.77085 60.9777V63.8557H8.74854V56.3215C9.20413 56.2327 9.72633 56.1771 10.2154 56.1771C11.2821 56.1771 12.2933 56.3435 12.8156 57.3993C12.9934 57.7436 13.0711 58.1106 13.0711 58.4885C13.0711 60.1329 11.9711 60.9891 10.4042 60.9891Z" fill="white"/>
<path d="M16.7017 59.3221C16.5793 59.2885 16.3792 59.2773 16.2016 59.2773C15.7127 59.2773 15.2903 59.5773 15.0238 59.9772V63.8557H14.0903V58.5771H14.8348L14.9349 59.1215C15.2348 58.6997 15.7571 58.4328 16.2794 58.4328C16.4461 58.4328 16.6016 58.455 16.7794 58.5105L16.7017 59.3221Z" fill="white"/>
<path d="M19.6132 59.1437C18.5019 59.1437 18.0351 60.2108 18.0351 61.1886C18.0351 62.1666 18.4685 63.2666 19.5798 63.2666C20.691 63.2666 21.1353 62.1666 21.1353 61.1886C21.1353 60.2222 20.7244 59.1437 19.6132 59.1437ZM19.5798 64C17.9019 64 17.0239 62.7778 17.0239 61.1886C17.0239 59.6441 17.9908 58.4108 19.6132 58.4108C21.2467 58.4108 22.1577 59.6551 22.1577 61.1886C22.1577 62.7444 21.2245 64 19.5798 64Z" fill="white"/>
<path d="M24.8728 64C24.195 64 23.7618 63.7335 23.5282 63.211C23.4171 62.9556 23.3725 62.5445 23.3725 61.8778V59.2217H22.606V58.5886H23.3725V57.5885L24.3175 57.2216V58.5886H25.7953V59.2107H24.3175V61.9335C24.3175 62.3335 24.3505 62.6337 24.4171 62.8114C24.5174 63.0775 24.7284 63.2335 25.0729 63.2335C25.3508 63.2335 25.6618 63.1109 26.0284 62.8445L26.173 63.5222C25.7507 63.8445 25.3283 64 24.8728 64Z" fill="white"/>
<path d="M28.8624 59.1664C27.9958 59.1664 27.5733 59.8886 27.4956 60.6778H30.0178C30.0178 60.6442 30.0291 60.6108 30.0291 60.5778C30.0291 59.8552 29.6403 59.1664 28.8624 59.1664ZM30.9735 61.411C30.5071 61.4221 30.0626 61.411 29.6294 61.411H27.4846C27.5179 62.3778 28.0622 63.2444 29.1068 63.2444C29.7181 63.2444 30.2736 63.0336 30.7957 62.6223L30.9071 63.3888C30.3293 63.8222 29.6737 64 28.9736 64C27.2955 64 26.4512 62.7444 26.4512 61.1778C26.4512 59.6773 27.3178 58.4108 28.929 58.4108C29.3515 58.4108 29.7401 58.5329 30.0735 58.7442C30.7513 59.1885 31.0178 59.9329 31.0178 60.7443C31.0178 60.9557 31.0071 61.1778 30.9735 61.411Z" fill="white"/>
<path d="M34.3181 64C32.7627 64 31.7065 62.8114 31.7065 61.2886C31.7065 59.633 32.7848 58.4108 34.4516 58.4108C35.0294 58.4108 35.5742 58.555 36.0628 58.9108L35.8741 59.633C35.4293 59.3329 34.9741 59.1664 34.485 59.1664C33.3737 59.1664 32.7184 60.1108 32.7184 61.1665C32.7184 62.2334 33.2848 63.2558 34.4516 63.2558C34.9741 63.2558 35.4737 63.1 35.9521 62.7891L36.1295 63.4889C35.5628 63.8222 34.952 64 34.3181 64Z" fill="white"/>
<path d="M38.7749 64C38.097 64 37.6636 63.7335 37.4301 63.211C37.3193 62.9556 37.2748 62.5445 37.2748 61.8778V59.2217H36.5078V58.5886H37.2748V57.5885L38.2194 57.2216V58.5886H39.6972V59.2107H38.2194V61.9335C38.2194 62.3335 38.2523 62.6337 38.3192 62.8114C38.4192 63.0775 38.6303 63.2335 38.975 63.2335C39.2528 63.2335 39.5637 63.1109 39.9307 62.8445L40.0751 63.5222C39.6528 63.8445 39.2305 64 38.7749 64Z" fill="white"/>
<path d="M42.7532 59.1664C41.8862 59.1664 41.464 59.8886 41.3862 60.6778H43.9088C43.9088 60.6442 43.9198 60.6108 43.9198 60.5778C43.9198 59.8552 43.5311 59.1664 42.7532 59.1664ZM44.8641 61.411C44.3977 61.4221 43.9532 61.411 43.5198 61.411H41.3753C41.4083 62.3778 41.9526 63.2444 42.9975 63.2444C43.6085 63.2444 44.1642 63.0336 44.6863 62.6223L44.7977 63.3888C44.2197 63.8222 43.5641 64 42.864 64C41.1861 64 40.3418 62.7444 40.3418 61.1778C40.3418 59.6773 41.2088 58.4108 42.8197 58.4108C43.2419 58.4108 43.6305 58.5329 43.9641 58.7442C44.642 59.1885 44.9089 59.9329 44.9089 60.7443C44.9089 60.9557 44.8978 61.1778 44.8641 61.411Z" fill="white"/>
<path d="M49.2985 59.5994C49.0541 59.4108 48.5984 59.2217 48.1204 59.2217C47.4096 59.2217 46.5869 59.8329 46.5869 61.2109C46.5869 62.4999 47.1654 63.2223 48.0206 63.2223C48.5318 63.2223 49.0318 62.9666 49.2985 62.6666V59.5994ZM49.5098 63.8558L49.3984 63.3888C48.9875 63.7888 48.3762 64 47.8762 64C46.4539 64 45.5762 62.8335 45.5762 61.2552C45.5762 59.5887 46.754 58.4329 48.0206 58.4329C48.4763 58.4329 48.9875 58.5993 49.2985 58.8222V55.9994H50.232V63.8558H49.5098Z" fill="white"/>
<path d="M0.282227 33.2178C0.853146 33.4852 1.58866 33.6204 2.46995 33.6204C6.85805 33.6204 10.3284 30.8205 12.7853 25.3003L15.5936 18.4875H20.0377L21.0211 16.5686H16.2813L16.4608 16.1391C18.0685 12.2775 20.1408 10.32 22.6206 10.32C23.1497 10.32 23.8263 10.4884 24.6318 10.8215L26.0993 8.59173C25.4963 8.32201 24.5043 8.05892 23.5536 8.05892C19.1643 8.05892 15.6926 10.8599 13.2348 16.3844L13.1524 16.5686L5.04346 16.5676L4.05656 18.4912L12.363 18.4875L11.2812 21.0365H1.67168L0.685355 22.9428H10.5919L9.51683 25.5409C7.90839 29.4038 5.8512 31.3621 3.40363 31.3621C2.87768 31.3621 2.2291 31.2014 1.42522 30.8721L0.282227 33.2178Z" fill="white"/>
<path d="M49.9002 19.2437C49.1926 18.5596 48.4119 18.219 47.5562 18.219C46.9859 18.219 46.4874 18.3642 46.0578 18.6573C45.6277 18.9489 45.3982 19.3332 45.3723 19.8116C45.3519 20.1604 45.4526 20.4605 45.6737 20.7084C45.8955 20.9604 46.2862 21.2389 46.8441 21.5508L48.393 22.4144C48.8703 22.6792 49.2193 23.0224 49.44 23.4391C49.66 23.8556 49.7554 24.3104 49.7267 24.804C49.6542 26.1078 49.1214 27.1394 48.134 27.8976C47.1477 28.6575 45.9218 29.0369 44.4644 29.0369C43.1815 29.0369 42.0484 28.7164 41.0659 28.0792L42.3102 26.0283C42.5894 26.3229 42.999 26.5959 43.5393 26.8422C44.0815 27.0899 44.5486 27.2146 44.9451 27.2146C45.6221 27.2146 46.1924 27.0301 46.6515 26.6666C47.1121 26.303 47.3617 25.8109 47.3979 25.1885C47.4159 24.8697 47.3169 24.5857 47.098 24.3367C46.8799 24.0869 46.496 23.7981 45.946 23.4734L44.3887 22.5856C43.9103 22.3049 43.5592 21.9497 43.3375 21.5214C43.1157 21.0943 43.0161 20.6373 43.045 20.1508C43.1091 19.02 43.5986 18.1123 44.5192 17.4276C45.4364 16.7401 46.5386 16.3945 47.8193 16.3945C48.706 16.3945 49.7601 16.6771 50.9819 17.2391L49.9002 19.2437Z" fill="white"/>
<path d="M40.3541 18.8525C39.8284 18.43 39.1079 18.2196 38.185 18.2196C36.7847 18.2196 35.6229 18.7721 34.6977 19.875C33.7704 20.9805 33.2625 22.3358 33.1721 23.9451C33.1149 24.9317 33.349 25.7196 33.8758 26.3075C34.4026 26.8958 35.0233 27.1878 35.7384 27.1878C36.8417 27.1878 37.9183 26.848 38.9678 26.1678L38.5987 28.3792C37.5802 28.8177 36.479 29.0369 35.2956 29.0369C33.7923 29.0369 32.6611 28.6062 31.9051 27.7457C31.149 26.8844 30.811 25.7402 30.8922 24.3149C31.0235 21.9932 31.7663 20.0936 33.126 18.6136C34.486 17.1354 36.1512 16.3952 38.1259 16.3952C39.2937 16.3952 40.2014 16.6006 40.846 17.0038L40.3541 18.8525Z" fill="white"/>
<path d="M28.7435 19.2437C28.0395 18.5596 27.2569 18.219 26.3991 18.219C25.8292 18.219 25.3301 18.3642 24.9003 18.6573C24.4706 18.9489 24.243 19.3332 24.2141 19.8116C24.1944 20.1604 24.2951 20.4605 24.5175 20.7084C24.7373 20.9604 25.1293 21.2389 25.6891 21.5508L27.2357 22.4144C27.7139 22.6792 28.0637 23.0224 28.2829 23.4391C28.5036 23.8556 28.5993 24.3104 28.57 24.804C28.4976 26.1078 27.9663 27.1394 26.9773 27.8976C25.9886 28.6575 24.7656 29.0369 23.3075 29.0369C22.0235 29.0369 20.8917 28.7164 19.9097 28.0792L21.1533 26.0283C21.4318 26.3229 21.8425 26.5959 22.3826 26.8422C22.9253 27.0899 23.3944 27.2146 23.7904 27.2146C24.4652 27.2146 25.0355 27.0301 25.497 26.6666C25.9591 26.303 26.2063 25.8109 26.2421 25.1885C26.259 24.8697 26.1583 24.5857 25.9424 24.3367C25.7251 24.0869 25.341 23.7981 24.79 23.4734L23.2333 22.5856C22.7539 22.3049 22.4036 21.9497 22.1814 21.5214C21.9593 21.0943 21.8596 20.6373 21.8875 20.1508C21.9509 19.02 22.4422 18.1123 23.3623 17.4276C24.2812 16.7401 25.3828 16.3945 26.6633 16.3945C27.5506 16.3945 28.603 16.6771 29.825 17.2391L28.7435 19.2437Z" fill="white"/>
<path d="M32.5305 -8.01086e-05C31.713 0.000778198 30.894 0.0168419 30.0726 0.056263C27.6993 0.168953 25.3227 0.403328 22.9689 0.857082C20.6164 1.30591 18.2752 1.92891 16.0191 2.88741C14.8924 3.36729 13.7835 3.92603 12.7386 4.63429C12.2165 4.98843 11.7089 5.37555 11.2319 5.81473C10.7554 6.25263 10.3059 6.73981 9.92303 7.29618C9.53973 7.84977 9.22224 8.4747 9.02758 9.14976C8.83065 9.8231 8.76923 10.544 8.84865 11.2321C8.92464 11.9218 9.12816 12.5741 9.40367 13.1688C9.43397 13.2331 9.46769 13.2944 9.49931 13.3574C9.55111 13.4229 9.63113 13.4664 9.72301 13.4664C9.87943 13.4664 10.006 13.3445 10.006 13.1939C10.006 13.1564 9.99809 13.1206 9.9837 13.0879L9.98571 13.0898C9.95917 13.0268 9.93054 12.9647 9.90586 12.9008C9.68846 12.3372 9.54074 11.7454 9.51045 11.1494C9.47906 10.5547 9.55998 9.96193 9.74913 9.40663C9.93849 8.85133 10.2303 8.33523 10.5871 7.87076C11.3028 6.93926 12.2388 6.19522 13.2337 5.57972C14.2343 4.967 15.2982 4.46376 16.3884 4.03957C17.4791 3.61367 18.5989 3.27324 19.728 2.97481C20.8574 2.67745 22.0006 2.43708 23.1495 2.24083C25.4496 1.85799 27.7708 1.61376 30.0961 1.5285C32.4191 1.45073 34.7577 1.46358 37.0796 1.56706C38.2421 1.61676 39.4011 1.70889 40.5569 1.82479C41.7125 1.94026 42.8636 2.09751 44.0063 2.30254C46.2903 2.71001 48.5505 3.31738 50.6721 4.30094C51.7281 4.79925 52.7478 5.39162 53.6873 6.11188C54.1547 6.47437 54.6018 6.86835 55.0204 7.29597C55.4371 7.72551 55.824 8.18891 56.1739 8.68358C56.8714 9.6755 57.4145 10.8 57.752 12.0023C58.095 13.199 58.2359 14.474 58.2306 15.7369C58.2029 18.2762 57.554 20.7864 56.5396 23.0683C56.0293 24.2097 55.435 25.3047 54.7685 26.3403C54.0986 27.374 53.3612 28.3501 52.5713 29.2649C51.7816 30.1799 50.9369 31.0315 50.0482 31.8121C49.6054 32.2046 49.1527 32.5813 48.6883 32.936C48.2268 33.2955 47.755 33.6366 47.2726 33.9554C45.3513 35.2404 43.2951 36.2338 41.1658 36.8308L40.772 36.9375C40.658 36.9682 40.4748 37.0121 40.3664 37.0372C40.1038 37.0974 39.8392 37.1505 39.5744 37.194C39.0442 37.287 38.5099 37.348 37.9734 37.3744C37.4365 37.3975 36.8977 37.4029 36.3583 37.3703C35.8191 37.3367 35.2796 37.2739 34.7402 37.1899C32.5841 36.8388 30.4563 36.0555 28.4033 35.0124C26.3678 33.9701 24.3998 32.6922 22.4948 31.2151L22.4747 31.1949L22.4717 31.1975C22.4618 31.19 22.452 31.1829 22.4428 31.1754C22.444 31.1778 22.4458 31.1799 22.447 31.1821C22.41 31.1523 22.3641 31.1322 22.3119 31.1322C22.1932 31.1322 22.0974 31.2247 22.0974 31.3385C22.0974 31.388 22.1175 31.431 22.1475 31.4666L22.1407 31.4719C23.6982 33.4922 25.8611 35.5058 28.4887 37.2987L28.4757 37.2852C30.2249 38.4623 32.1601 39.3783 34.2369 39.8779C34.8481 40.0294 35.4716 40.1374 36.1018 40.2051C36.7315 40.2736 37.3684 40.3096 38.0066 40.2897C38.6451 40.2728 39.2848 40.2169 39.9204 40.1172C40.2377 40.0645 40.5535 40.0013 40.8682 39.9281C41.0486 39.8854 41.1535 39.8608 41.3264 39.8152L41.792 39.6883C44.2377 38.9784 46.5358 37.7435 48.5719 36.1569C50.6134 34.5722 52.3883 32.6269 53.8848 30.4832C54.6325 29.4099 55.3073 28.2815 55.9037 27.1107C56.5008 25.9408 57.0263 24.7303 57.4505 23.4818C58.2464 21.1609 58.7473 18.7105 58.7531 16.2545V16.1626C58.7527 16.0148 58.7507 15.8669 58.7464 15.7193C58.716 14.4031 58.5277 13.0996 58.1603 11.8502C57.7877 10.6057 57.2267 9.43512 56.5045 8.40164C55.7857 7.36516 54.9191 6.46173 53.9709 5.68705C53.0257 4.90658 51.9989 4.24952 50.932 3.69229C48.7988 2.56776 46.5187 1.80722 44.209 1.24742C43.0523 0.970413 41.8841 0.751461 40.7116 0.570644C39.5388 0.391972 38.3593 0.270077 37.1784 0.173241C35.9977 0.0746918 34.8134 0.0284157 33.6298 0.00699234C33.3112 0.00292206 32.9924 0.000350952 32.6741 -8.01086e-05H32.5305Z" fill="white"/>
</svg>
