<svg width="93" height="40" viewBox="0 0 93 40" fill="none" xmlns="http://www.w3.org/2000/svg">
<path d="M84.9355 9.98819V9.54782C84.1774 8.98627 83.1016 9.04686 82.4159 9.73549L79.7884 12.3615H3.15771L3.16658 32.0556C3.16658 34.3535 6.02605 37.1391 8.32544 37.1391H78.5944C80.8923 37.1391 82.7617 34.3535 82.7617 32.0556V17.3489L78.4392 21.7482C78.0609 22.1265 78.1732 22.3925 77.6782 22.3925C77.1832 22.3925 76.6852 22.2034 76.3068 21.825C75.5502 21.0684 74.9414 20.9074 75.698 20.1522L82.4144 13.4358C83.1001 12.7472 84.1759 11.9994 84.934 12.561V13.458H85.6241V10.5985L84.934 9.98819" fill="#1D1D1B"/>
<path d="M11.4157 19.2862C12.7028 19.5774 13.0279 20.3414 13.0279 21.0625C13.0279 22.1767 12.1871 23.0102 10.4891 23.0102C8.70398 23.0102 7.90747 22.1176 7.90747 21.4482C7.90747 21.1054 8.15573 20.866 8.50005 20.866C9.26257 20.866 9.06603 21.9802 10.4891 21.9802C11.2177 21.9802 11.6211 21.5782 11.6211 21.166C11.6211 20.9192 11.4999 20.6443 11.0211 20.5231L9.43547 20.1197C8.15721 19.7946 7.9252 19.0912 7.9252 18.4306C7.9252 17.0578 9.19312 16.5435 10.3857 16.5435C11.4851 16.5435 12.7782 17.1612 12.7782 17.9843C12.7782 18.336 12.4797 18.5415 12.1353 18.5415C11.4851 18.5415 11.6048 17.6238 10.2911 17.6238C9.6394 17.6238 9.28031 17.9237 9.28031 18.3523C9.28031 18.7808 9.79457 18.9183 10.2409 19.0202L11.4157 19.2862ZM19.9364 22.3053C19.8079 22.793 19.6025 22.9733 19.0882 22.9733C18.5739 22.9733 18.3671 22.7501 18.2459 22.2787L17.3282 18.5149H17.3119L16.3942 22.2787C16.2819 22.7516 16.0839 22.9733 15.5534 22.9733C15.0229 22.9733 14.8337 22.793 14.7037 22.3053L13.4949 17.6149C13.4609 17.4849 13.4254 17.3489 13.4254 17.2115C13.4254 16.7814 13.7786 16.5746 14.1037 16.5746C14.4643 16.5746 14.6771 16.7386 14.7628 17.1494L15.5948 21.2487H15.611L16.5731 17.0977C16.6484 16.7563 16.7859 16.5746 17.309 16.5746C17.9016 16.5746 18.0213 16.8583 18.107 17.2425L19.0424 21.2487H19.0586L19.8995 17.1494C19.9852 16.7386 20.1995 16.5746 20.5334 16.5746C20.8674 16.5746 21.2117 16.7814 21.2117 17.2115C21.2117 17.3474 21.1778 17.4849 21.1438 17.6149L19.9335 22.3053H19.9364ZM21.9536 17.2794C21.9536 16.8598 22.2284 16.576 22.657 16.576C23.0855 16.576 23.3589 16.8598 23.3589 17.2794V22.2713C23.3589 22.6895 23.0841 22.9733 22.657 22.9733C22.2299 22.9733 21.9536 22.6895 21.9536 22.2713V17.2794ZM26.1268 17.872H24.7968C24.3948 17.872 24.0683 17.6666 24.0683 17.2794C24.0683 16.8923 24.3948 16.6869 24.7968 16.6869H28.8621C29.2641 16.6869 29.5921 16.8923 29.5921 17.2794C29.5921 17.6666 29.2641 17.872 28.8621 17.872H27.5321V22.2713C27.5321 22.6895 27.2573 22.9733 26.8302 22.9733C26.4031 22.9733 26.1268 22.6895 26.1268 22.2713V17.872ZM32.8993 16.542C34.5116 16.542 35.3953 17.5543 35.3953 18.1543C35.3953 18.5503 35.1825 18.7897 34.7598 18.7897C33.9456 18.7897 34.1865 17.6755 32.8993 17.6755C32.0156 17.6755 31.2871 18.4395 31.2871 19.7769C31.2871 20.9014 31.7334 21.8782 32.9511 21.8782C34.0564 21.8782 34.0313 20.6945 34.7081 20.6945C35.051 20.6945 35.3938 20.894 35.3938 21.2354C35.3938 22.128 34.3136 23.0117 32.9511 23.0117C31.0211 23.0117 29.8803 21.9048 29.8803 19.7769C29.8803 18.0361 30.9103 16.5435 32.8979 16.5435L32.8993 16.542ZM36.313 17.2794C36.313 16.8598 36.5893 16.576 37.0164 16.576C37.4435 16.576 37.7183 16.8598 37.7183 17.2794V19.0276H40.2748V17.2794C40.2748 16.8598 40.5497 16.576 40.9768 16.576C41.4039 16.576 41.6787 16.8598 41.6787 17.2794V22.2713C41.6787 22.6895 41.4053 22.9733 40.9768 22.9733C40.5482 22.9733 40.2748 22.6895 40.2748 22.2713V20.2128H37.7183V22.2713C37.7183 22.6895 37.4449 22.9733 37.0164 22.9733C36.5878 22.9733 36.313 22.6895 36.313 22.2713V17.2794ZM15.0037 31.6846C15.0037 31.9935 14.7687 32.2491 14.4288 32.2491C13.9456 32.2491 13.8126 31.9506 13.7092 31.2945C13.2259 31.9004 12.5595 32.2905 11.5117 32.2905C8.90348 32.2905 7.90747 30.4936 7.90747 28.4188C7.90747 25.9229 9.46798 24.5456 11.7585 24.5456C13.6279 24.5456 14.6239 25.6657 14.6239 26.3233C14.6239 26.9085 14.1924 27.0622 13.8333 27.0622C13.0013 27.0622 13.3087 25.9022 11.6669 25.9022C10.5068 25.9022 9.59212 26.6632 9.59212 28.5311C9.59212 29.9897 10.3118 30.996 11.6861 30.996C12.5801 30.996 13.3604 30.3916 13.4432 29.4872H12.3422C11.9831 29.4872 11.5827 29.3527 11.5827 28.84C11.5827 28.4291 11.8191 28.1927 12.2403 28.1927H14.315C14.8086 28.1927 15.0037 28.438 15.0037 28.902V31.6846ZM16.3558 25.4293C16.3558 24.9254 16.6839 24.587 17.1981 24.587C17.7124 24.587 18.0419 24.9269 18.0419 25.4293V29.4769C18.0419 30.4832 18.605 30.9339 19.57 30.9339C20.5349 30.9339 21.0994 30.4832 21.0994 29.4769V25.4293C21.0994 24.9254 21.4305 24.587 21.9432 24.587C22.456 24.587 22.7856 24.9269 22.7856 25.4293V29.3424C22.7856 31.3758 21.5309 32.2905 19.57 32.2905C17.609 32.2905 16.3558 31.3758 16.3558 29.3424V25.4293ZM25.7854 25.0998C25.9288 24.72 26.1947 24.5855 26.6056 24.5855H27.006C27.3858 24.5855 27.7257 24.6771 27.9104 25.2017L29.9438 30.8615C30.0044 31.0256 30.1079 31.3241 30.1079 31.5088C30.1079 31.9181 29.7488 32.2477 29.3187 32.2477C28.9478 32.2477 28.6818 32.1147 28.5592 31.7851L28.1277 30.5527H25.4145L24.9741 31.7851C24.8603 32.1147 24.6239 32.2477 24.2249 32.2477C23.7624 32.2477 23.4432 31.961 23.4432 31.5088C23.4432 31.3241 23.5466 31.0256 23.6072 30.8615L25.7869 25.0983L25.7854 25.0998ZM26.8021 26.415H26.7799L25.7854 29.3823H27.7567L26.8036 26.415H26.8021ZM30.959 25.7056C30.959 24.9549 31.3492 24.72 31.9432 24.72H34.7465C36.7519 24.72 37.2853 25.8194 37.2853 26.774C37.2853 27.575 36.8125 28.3671 36.0115 28.5518V28.5725C36.8745 28.6966 37.0282 29.3217 37.0282 30.0724C37.0282 30.9251 37.2528 31.2428 37.2528 31.5915C37.2528 31.9832 36.8524 32.2491 36.4622 32.2491C35.5386 32.2491 35.4662 31.3551 35.4662 31.0581C35.4662 29.7636 35.2298 29.2404 34.3077 29.2404H32.6422V31.4083C32.6422 31.9107 32.3142 32.2506 31.7999 32.2506C31.2856 32.2506 30.9576 31.9107 30.9576 31.4083V25.7071L30.959 25.7056ZM32.6422 28.005H34.3269C34.9638 28.005 35.6007 27.841 35.6007 27.0105C35.6007 26.18 35.1175 26.0145 34.3786 26.0145H32.6422V28.0065V28.005ZM40.3251 25.0983C40.4684 24.7185 40.7344 24.584 41.1452 24.584H41.5457C41.9255 24.584 42.2639 24.6756 42.4501 25.2002L44.4835 30.8601C44.5441 31.0241 44.649 31.3226 44.649 31.5073C44.649 31.9167 44.2884 32.2462 43.8569 32.2462C43.486 32.2462 43.2215 32.1132 43.0974 31.7837L42.6673 30.5512H39.9542L39.5138 31.7837C39.4 32.1132 39.1636 32.2462 38.7631 32.2462C38.302 32.2462 37.9828 31.9595 37.9828 31.5073C37.9828 31.3226 38.0863 31.0241 38.1469 30.8601L40.3266 25.0968L40.3251 25.0983ZM41.3418 26.4135H41.3211L40.3266 29.3808H42.2979L41.3433 26.4135H41.3418ZM45.4825 25.5712C45.4825 24.8722 45.8224 24.5855 46.5406 24.5855C46.8908 24.5855 47.1996 24.72 47.3829 25.0273L50.331 29.7842H50.3502V25.3968C50.3502 24.853 50.6591 24.5855 51.1615 24.5855C51.6639 24.5855 51.9728 24.853 51.9728 25.3968V31.1999C51.9728 31.8679 51.6846 32.2477 50.9768 32.2477C50.4433 32.2477 50.2689 32.1354 50.0532 31.797L47.1243 27.1745H47.1051V31.4379C47.1051 31.9832 46.7962 32.2477 46.2938 32.2477C45.7913 32.2477 45.4825 31.9817 45.4825 31.4379V25.5712ZM55.2889 26.1371H53.6973C53.2126 26.1371 52.8225 25.8918 52.8225 25.4278C52.8225 24.9638 53.2126 24.7185 53.6973 24.7185H58.5636C59.0468 24.7185 59.4384 24.9638 59.4384 25.4278C59.4384 25.8918 59.0468 26.1371 58.5636 26.1371H56.9721V31.4054C56.9721 31.9078 56.6425 32.2477 56.1297 32.2477C55.617 32.2477 55.2874 31.9078 55.2874 31.4054V26.1371H55.2889ZM60.3236 25.7056C60.3236 24.9549 60.7137 24.72 61.3078 24.72H65.2638C65.7559 24.72 66.1164 24.8648 66.1164 25.3983C66.1164 25.9317 65.7559 26.0765 65.2638 26.0765H62.0068V27.6799H64.8618C65.3022 27.6799 65.6509 27.8026 65.6509 28.3272C65.6509 28.8518 65.3022 28.9744 64.8618 28.9744H62.0068V30.761H65.345C65.8386 30.761 66.1992 30.9059 66.1992 31.4408C66.1992 31.9758 65.8386 32.1191 65.345 32.1191H61.3063C60.7123 32.1191 60.3221 31.8827 60.3221 31.1334V25.7101L60.3236 25.7056ZM67.2661 25.7056C67.2661 24.9549 67.6577 24.72 68.2533 24.72H72.2078C72.7013 24.72 73.0604 24.8648 73.0604 25.3983C73.0604 25.9317 72.7013 26.0765 72.2078 26.0765H68.9508V27.6799H71.8058C72.2477 27.6799 72.5979 27.8026 72.5979 28.3272C72.5979 28.8518 72.2477 28.9744 71.8058 28.9744H68.9508V30.761H72.2905C72.7826 30.761 73.1417 30.9059 73.1417 31.4408C73.1417 31.9758 72.7826 32.1191 72.2905 32.1191H68.2518C67.6563 32.1191 67.2647 31.8827 67.2647 31.1334V25.7101L67.2661 25.7056ZM91.8694 22.1088C91.4911 22.4871 90.993 22.6777 90.498 22.6777C90.003 22.6777 89.5064 22.4871 89.1266 22.1088L85.7189 18.6996V31.9551C85.7189 36.3913 82.1102 40 77.6755 40H8.32124C3.88501 40 0.282227 36.3913 0.282227 31.9551V6.1061C0.282227 2.73533 3.15647 0 6.69275 0H79.2168C82.7545 0 85.6214 2.73533 85.6214 6.1061V11.2531L85.1515 10.7817C84.3949 10.0251 83.1668 10.0251 82.4102 10.7817L79.7842 13.4077H4.14509L4.15248 31.9551C4.15248 34.253 6.02185 36.1238 8.32124 36.1238H77.6769C79.9749 36.1238 81.8442 34.253 81.8442 31.9551V18.6996L78.435 22.1073C78.0567 22.4871 77.5602 22.6762 77.0652 22.6762C76.5701 22.6762 76.0721 22.4871 75.6938 22.1073C74.9372 21.3522 74.9372 20.1227 75.6938 19.366L82.4102 12.6496C83.1668 11.893 84.3949 11.893 85.1515 12.6496L91.8694 19.3675C92.626 20.1241 92.626 21.3522 91.8694 22.1088Z" fill="white"/>
<path d="M7.87646 6.82577C7.87646 8.48973 8.76755 9.35274 10.2749 9.35274C11.3389 9.35274 12.1841 8.66263 12.1841 7.96512C12.1841 7.69913 11.9167 7.54396 11.6492 7.54396C11.1201 7.54396 11.1394 8.46756 10.2749 8.46756C9.32319 8.46756 8.97444 7.70356 8.97444 6.82577C8.97444 5.78099 9.54486 5.18546 10.235 5.18546C11.2398 5.18546 11.0522 6.05734 11.6891 6.05734C12.0171 6.05734 12.1841 5.86818 12.1841 5.55933C12.1841 5.09236 11.494 4.30176 10.235 4.30176C8.68037 4.30176 7.87646 5.46919 7.87646 6.82725M12.8757 7.43017C12.8757 8.7572 13.6929 9.35274 14.9727 9.35274C16.2524 9.35274 17.0711 8.7572 17.0711 7.43017V4.87808C17.0711 4.54854 16.8553 4.32836 16.5199 4.32836C16.1844 4.32836 15.9702 4.55002 15.9702 4.87808V7.51736C15.9702 8.17497 15.6022 8.46904 14.9727 8.46904C14.3431 8.46904 13.9752 8.17497 13.9752 7.51736V4.87808C13.9752 4.54854 13.7609 4.32836 13.4255 4.32836C13.09 4.32836 12.8757 4.55002 12.8757 4.87808V7.43017ZM18.0745 8.77641C18.0745 9.10595 18.2888 9.32614 18.6242 9.32614C18.9597 9.32614 19.1739 9.10448 19.1739 8.77641V7.3622H20.2586C20.8615 7.3622 21.0152 7.70504 21.0152 8.55032C21.0152 8.74243 21.064 9.32762 21.6669 9.32762C21.9211 9.32762 22.1827 9.15324 22.1827 8.89759C22.1827 8.67001 22.0349 8.46017 22.0349 7.90601C22.0349 7.4154 21.9344 7.00901 21.3714 6.92774V6.91444C21.8945 6.79178 22.2033 6.27752 22.2033 5.7544C22.2033 5.13226 21.8546 4.41555 20.5483 4.41555H18.7188C18.3301 4.41555 18.0745 4.56923 18.0745 5.05837V8.77641ZM19.1739 5.25935H20.3059C20.7891 5.25935 21.1054 5.39234 21.1054 5.90808C21.1054 6.45042 20.6872 6.5583 20.2734 6.5583H19.1739V5.25935ZM23.0664 8.77641C23.0664 9.10595 23.2836 9.32614 23.6161 9.32614C23.9486 9.32614 24.1658 9.10448 24.1658 8.77641V7.3622H25.252C25.8549 7.3622 26.0101 7.70504 26.0101 8.55032C26.0101 8.74243 26.0559 9.32762 26.6588 9.32762C26.913 9.32762 27.1745 9.15324 27.1745 8.89759C27.1745 8.67001 27.0268 8.46017 27.0268 7.90601C27.0268 7.4154 26.9263 7.00901 26.3632 6.92774V6.91444C26.8864 6.79178 27.1952 6.27752 27.1952 5.7544C27.1952 5.13226 26.8479 4.41555 25.5401 4.41555H23.7107C23.3205 4.41555 23.0649 4.56923 23.0649 5.05837V8.77641H23.0664ZM24.1658 5.25935H25.3007C25.7825 5.25935 26.0958 5.39234 26.0958 5.90808C26.0958 6.45042 25.682 6.5583 25.2653 6.5583H24.1658V5.25935ZM28.0641 8.59613C28.0641 9.08379 28.3183 9.23747 28.707 9.23747H31.3403C31.6625 9.23747 31.896 9.14585 31.896 8.7971C31.896 8.44835 31.6625 8.35525 31.3403 8.35525H29.1621V7.18782H31.0256C31.3137 7.18782 31.5428 7.10802 31.5428 6.76666C31.5428 6.4253 31.3137 6.3455 31.0256 6.3455H29.1621V5.29925H31.2871C31.6078 5.29925 31.8443 5.20615 31.8443 4.85887C31.8443 4.5116 31.6093 4.41702 31.2871 4.41702H28.707C28.3183 4.41702 28.0641 4.57071 28.0641 5.05985V8.59908V8.59613ZM32.6023 8.7971C32.6023 9.15176 32.8033 9.32614 33.1299 9.32614C33.4565 9.32614 33.6589 9.15176 33.6589 8.7971V6.01596H33.6722L35.5815 9.03207C35.7219 9.25373 35.8372 9.32762 36.1859 9.32762C36.647 9.32762 36.8332 9.07935 36.8332 8.64489V4.85887C36.8332 4.50273 36.6322 4.32836 36.3041 4.32836C35.9761 4.32836 35.7766 4.50273 35.7766 4.85887V7.71982H35.7618L33.8392 4.61652C33.7181 4.41555 33.5186 4.32836 33.2895 4.32836C32.8196 4.32836 32.5994 4.51751 32.5994 4.97266V8.79858L32.6023 8.7971ZM39.0129 8.77641C39.0129 9.10595 39.2271 9.32614 39.5626 9.32614C39.898 9.32614 40.1123 9.10448 40.1123 8.77641V5.33915H41.1512C41.4645 5.33915 41.7201 5.17807 41.7201 4.87661C41.7201 4.57514 41.4645 4.41407 41.1512 4.41407H37.974C37.6592 4.41407 37.4021 4.57367 37.4021 4.87661C37.4021 5.17955 37.6578 5.33915 37.974 5.33915H39.0129V8.77641ZM44.018 8.42175C43.9796 8.52963 43.9116 8.72321 43.9116 8.84439C43.9116 9.13846 44.1185 9.32762 44.4215 9.32762C44.6816 9.32762 44.8367 9.23895 44.9091 9.02616L45.1973 8.22225H46.9662L47.2484 9.02616C47.3282 9.23895 47.5026 9.32762 47.7435 9.32762C48.0243 9.32762 48.2592 9.11187 48.2592 8.84439C48.2592 8.72321 48.1912 8.52963 48.1528 8.42175L46.8258 4.73031C46.7046 4.38747 46.4859 4.32688 46.2376 4.32688H45.9746C45.7071 4.32688 45.5327 4.41555 45.4382 4.66085L44.018 8.42027V8.42175ZM46.7268 7.45825H45.4382L46.0884 5.52091H46.1017L46.7268 7.45825ZM48.5518 6.82725C48.5518 8.49121 49.4414 9.35422 50.9502 9.35422C52.0157 9.35422 52.8595 8.6641 52.8595 7.9666C52.8595 7.7006 52.592 7.54544 52.3231 7.54544C51.7925 7.54544 51.8132 8.46904 50.9487 8.46904C49.9971 8.46904 49.6483 7.70504 49.6483 6.82725C49.6483 5.78247 50.2187 5.18694 50.9074 5.18694C51.9137 5.18694 51.726 6.05881 52.3644 6.05881C52.6895 6.05881 52.8595 5.86966 52.8595 5.56081C52.8595 5.09384 52.1694 4.30324 50.9074 4.30324C49.3542 4.30324 48.5503 5.47067 48.5503 6.82873L48.5518 6.82725ZM53.3545 6.82725C53.3545 8.49121 54.2456 9.35422 55.7529 9.35422C56.8154 9.35422 57.6622 8.6641 57.6622 7.9666C57.6622 7.7006 57.3962 7.54544 57.1273 7.54544C56.5982 7.54544 56.6174 8.46904 55.7529 8.46904C54.8013 8.46904 54.4525 7.70504 54.4525 6.82725C54.4525 5.78247 55.0244 5.18694 55.713 5.18694C56.7194 5.18694 56.5317 6.05881 57.1657 6.05881C57.4952 6.05881 57.6607 5.86966 57.6607 5.56081C57.6607 5.09384 56.9706 4.30324 55.7116 4.30324C54.157 4.30324 53.3531 5.47067 53.3531 6.82873L53.3545 6.82725ZM58.1277 6.76666C58.1277 8.22817 58.837 9.35274 60.566 9.35274C62.295 9.35274 63.0043 8.1262 63.0043 6.76666C63.0043 5.40712 62.1472 4.30176 60.566 4.30176C58.9848 4.30176 58.1277 5.35392 58.1277 6.76666ZM59.2271 6.76666C59.2271 5.84158 59.6675 5.18546 60.566 5.18546C61.4645 5.18546 61.9078 5.84158 61.9078 6.76666C61.9078 7.69174 61.565 8.46904 60.566 8.46904C59.567 8.46904 59.2271 7.69174 59.2271 6.76666ZM63.7742 7.43017C63.7742 8.7572 64.5944 9.35274 65.8726 9.35274C67.1509 9.35274 67.9696 8.7572 67.9696 7.43017V4.87808C67.9696 4.54854 67.7553 4.32836 67.4198 4.32836C67.0844 4.32836 66.8701 4.55002 66.8701 4.87808V7.51736C66.8701 8.17497 66.5007 8.46904 65.8712 8.46904C65.2416 8.46904 64.8722 8.17497 64.8722 7.51736V4.87808C64.8722 4.54854 64.6594 4.32836 64.3225 4.32836C63.9855 4.32836 63.7727 4.55002 63.7727 4.87808V7.43017H63.7742ZM68.9671 8.7971C68.9671 9.15176 69.168 9.32614 69.4946 9.32614C69.8212 9.32614 70.0237 9.15176 70.0237 8.7971V6.01596H70.037L71.9462 9.03207C72.0866 9.25373 72.2019 9.32762 72.5492 9.32762C73.0132 9.32762 73.1994 9.07935 73.1994 8.64489V4.85887C73.1994 4.50273 72.9984 4.32836 72.6718 4.32836C72.3452 4.32836 72.1413 4.50273 72.1413 4.85887V7.71982H72.128L70.2054 4.61652C70.0828 4.41555 69.8848 4.32836 69.6557 4.32836C69.1887 4.32836 68.9671 4.51751 68.9671 4.97266V8.79858V8.7971ZM75.3776 8.77641C75.3776 9.10595 75.5904 9.32614 75.9273 9.32614C76.2642 9.32614 76.477 9.10448 76.477 8.77641V5.33915H77.5159C77.8307 5.33915 78.0863 5.17807 78.0863 4.87661C78.0863 4.57514 77.8307 4.41407 77.5159 4.41407H74.3417C74.0254 4.41407 73.7713 4.57367 73.7713 4.87661C73.7713 5.17955 74.0269 5.33915 74.3417 5.33915H75.3791V8.77641H75.3776Z" fill="#1D1D1B"/>
</svg>
